{
    "asset" : {
        "generator" : "Khronos glTF Blender I/O v1.4.40",
        "version" : "2.0"
    },
    "scene" : 0,
    "scenes" : [
        {
            "name" : "Scene",
            "nodes" : [
                0
            ]
        }
    ],
    "nodes" : [
        {
            "mesh" : 0,
            "name" : "Ship",
            "rotation" : [
                0.7071068286895752,
                0,
                0,
                0.7071067094802856
            ]
        }
    ],
    "meshes" : [
        {
            "name" : "RetopoGroup2",
            "primitives" : [
                {
                    "attributes" : {
                        "POSITION" : 0,
                        "NORMAL" : 1,
                        "TANGENT" : 2,
                        "TEXCOORD_0" : 3,
                        "COLOR_0" : 4
                    },
                    "indices" : 5
                }
            ]
        }
    ],
    "accessors" : [
        {
            "bufferView" : 0,
            "componentType" : 5126,
            "count" : 16927,
            "max" : [
                4.7745537757873535,
                1.7438609600067139,
                2.4782278537750244
            ],
            "min" : [
                -4.774400234222412,
                -1.3543236255645752,
                -3.2980992794036865
            ],
            "type" : "VEC3"
        },
        {
            "bufferView" : 1,
            "componentType" : 5126,
            "count" : 16927,
            "type" : "VEC3"
        },
        {
            "bufferView" : 2,
            "componentType" : 5126,
            "count" : 16927,
            "type" : "VEC4"
        },
        {
            "bufferView" : 3,
            "componentType" : 5126,
            "count" : 16927,
            "type" : "VEC2"
        },
        {
            "bufferView" : 4,
            "componentType" : 5123,
            "count" : 16927,
            "normalized" : true,
            "type" : "VEC4"
        },
        {
            "bufferView" : 5,
            "componentType" : 5123,
            "count" : 82680,
            "type" : "SCALAR"
        }
    ],
    "bufferViews" : [
        {
            "buffer" : 0,
            "byteLength" : 203124,
            "byteOffset" : 0
        },
        {
            "buffer" : 0,
            "byteLength" : 203124,
            "byteOffset" : 203124
        },
        {
            "buffer" : 0,
            "byteLength" : 270832,
            "byteOffset" : 406248
        },
        {
            "buffer" : 0,
            "byteLength" : 135416,
            "byteOffset" : 677080
        },
        {
            "buffer" : 0,
            "byteLength" : 135416,
            "byteOffset" : 812496
        },
        {
            "buffer" : 0,
            "byteLength" : 165360,
            "byteOffset" : 947912
        }
    ],
    "buffers" : [
        {
            "byteLength" : 1113272,
            "uri" : "data:application/octet-stream;base64,"
        }
    ]
}
